<svg width="14" height="22" viewBox="0 0 14 22" fill="none" xmlns="http://www.w3.org/2000/svg">
<path d="M0 2.82386C0 2.10103 0.245833 1.4078 0.683417 0.896682C1.121 0.385563 1.71449 0.0984192 2.33333 0.0984192L11.6667 0.0984192C12.2855 0.0984192 12.879 0.385563 13.3166 0.896682C13.7542 1.4078 14 2.10103 14 2.82386V21.2206C13.9999 21.3438 13.9713 21.4648 13.917 21.5705C13.8628 21.6762 13.785 21.7627 13.692 21.8209C13.599 21.8791 13.4942 21.9067 13.3888 21.9008C13.2834 21.8949 13.1813 21.8558 13.0935 21.7875L7 17.9514L0.9065 21.7875C0.818656 21.8558 0.716602 21.8949 0.611207 21.9008C0.505811 21.9067 0.401022 21.8791 0.307999 21.8209C0.214977 21.7627 0.137205 21.6762 0.0829664 21.5705C0.028728 21.4648 5.45072e-05 21.3438 0 21.2206V2.82386ZM2.33333 1.46114C2.02391 1.46114 1.72717 1.60471 1.50838 1.86027C1.28958 2.11583 1.16667 2.46244 1.16667 2.82386V19.9478L6.67683 16.5655C6.77257 16.4911 6.885 16.4514 7 16.4514C7.115 16.4514 7.22743 16.4911 7.32317 16.5655L12.8333 19.9478V2.82386C12.8333 2.46244 12.7104 2.11583 12.4916 1.86027C12.2728 1.60471 11.9761 1.46114 11.6667 1.46114H2.33333Z" fill="#868686"/>
</svg>
