<svg width="19" height="15" viewBox="0 0 19 15" fill="none" xmlns="http://www.w3.org/2000/svg">
<g clip-path="url(#clip0_3_251)">
<path d="M15.675 13.125H3.325C3.06375 13.125 2.85 13.3359 2.85 13.5938V14.5312C2.85 14.7891 3.06375 15 3.325 15H15.675C15.9362 15 16.15 14.7891 16.15 14.5312V13.5938C16.15 13.3359 15.9362 13.125 15.675 13.125ZM17.575 3.75C16.7883 3.75 16.15 4.37988 16.15 5.15625C16.15 5.36426 16.1975 5.55762 16.2806 5.73633L14.1312 7.00781C13.6741 7.27734 13.0833 7.125 12.8191 6.66797L10.3995 2.49023C10.7172 2.23242 10.925 1.8457 10.925 1.40625C10.925 0.629883 10.2867 0 9.5 0C8.71328 0 8.075 0.629883 8.075 1.40625C8.075 1.8457 8.28281 2.23242 8.60047 2.49023L6.18094 6.66797C5.91672 7.125 5.32297 7.27734 4.86875 7.00781L2.72234 5.73633C2.8025 5.56055 2.85297 5.36426 2.85297 5.15625C2.85297 4.37988 2.21469 3.75 1.42797 3.75C0.64125 3.75 0 4.37988 0 5.15625C0 5.93262 0.638281 6.5625 1.425 6.5625C1.50219 6.5625 1.57938 6.55078 1.65359 6.53906L3.8 12.1875H15.2L17.3464 6.53906C17.4206 6.55078 17.4978 6.5625 17.575 6.5625C18.3617 6.5625 19 5.93262 19 5.15625C19 4.37988 18.3617 3.75 17.575 3.75Z" fill="#A0A0A0"/>
<path d="M11.2363 9.73096V10.5H7.83203V9.84375L9.44189 8.11768C9.60368 7.93766 9.73128 7.7793 9.82471 7.64258C9.91813 7.50358 9.98535 7.37939 10.0264 7.27002C10.0697 7.15837 10.0913 7.05241 10.0913 6.95215C10.0913 6.80176 10.0662 6.67301 10.0161 6.56592C9.96598 6.45654 9.89193 6.37223 9.79395 6.31299C9.69824 6.25374 9.57975 6.22412 9.43848 6.22412C9.28809 6.22412 9.1582 6.26058 9.04883 6.3335C8.94173 6.40641 8.8597 6.50781 8.80273 6.6377C8.74805 6.76758 8.7207 6.91455 8.7207 7.07861H7.73291C7.73291 6.78239 7.80355 6.51123 7.94482 6.26514C8.0861 6.01676 8.28548 5.81966 8.54297 5.67383C8.80046 5.52572 9.10579 5.45166 9.45898 5.45166C9.80762 5.45166 10.1016 5.50863 10.3408 5.62256C10.5824 5.73421 10.7646 5.896 10.8877 6.10791C11.013 6.31755 11.0757 6.5682 11.0757 6.85986C11.0757 7.02393 11.0495 7.18457 10.9971 7.3418C10.9447 7.49674 10.8695 7.65169 10.7715 7.80664C10.6758 7.95931 10.5596 8.11426 10.4229 8.27148C10.2861 8.42871 10.1346 8.59163 9.96826 8.76025L9.10352 9.73096H11.2363Z" fill="white"/>
</g>
<defs>
<clipPath id="clip0_3_251">
<rect width="19" height="15" fill="white"/>
</clipPath>
</defs>
</svg>
