<svg width="28" height="28" viewBox="0 0 28 28" fill="none" xmlns="http://www.w3.org/2000/svg">
<rect width="28" height="28" fill="white"/>
<path d="M13.7391 17.208C13.8116 17.2702 13.904 17.3045 13.9996 17.3045C14.0951 17.3045 14.1876 17.2702 14.2601 17.208L17.1661 14.708L17.8871 14.088C17.6834 13.2089 17.1878 12.4248 16.4811 11.8636C15.7744 11.3025 14.8983 10.9975 13.9959 10.9984C13.0935 10.9993 12.2181 11.3061 11.5125 11.8687C10.8069 12.4313 10.3129 13.2165 10.1111 14.096L10.8231 14.707L13.7391 17.208ZM14.0001 11.997C14.5773 11.9954 15.1425 12.1617 15.6268 12.4756C16.1112 12.7895 16.4938 13.2375 16.7281 13.765L16.5141 13.949L14.0001 16.113L11.4751 13.947L11.2691 13.771C11.5029 13.2421 11.8856 12.7927 12.3706 12.4776C12.8556 12.1626 13.4218 11.9956 14.0001 11.997Z" fill="#D7D7D7"/>
<path d="M7 13C8.38071 13 9.5 11.8807 9.5 10.5C9.5 9.11929 8.38071 8 7 8C5.61929 8 4.5 9.11929 4.5 10.5C4.5 11.8807 5.61929 13 7 13Z" fill="#D7D7D7"/>
<path d="M21 13C22.3807 13 23.5 11.8807 23.5 10.5C23.5 9.11929 22.3807 8 21 8C19.6193 8 18.5 9.11929 18.5 10.5C18.5 11.8807 19.6193 13 21 13Z" fill="#D7D7D7"/>
<path d="M14 10C14.4945 10 14.9778 9.85338 15.3889 9.57868C15.8 9.30397 16.1205 8.91352 16.3097 8.45671C16.4989 7.99989 16.5484 7.49723 16.452 7.01228C16.3555 6.52733 16.1174 6.08187 15.7678 5.73223C15.4181 5.3826 14.9727 5.1445 14.4877 5.04804C14.0028 4.95157 13.5001 5.00108 13.0433 5.1903C12.5865 5.37952 12.196 5.69995 11.9213 6.11107C11.6466 6.52219 11.5 7.00555 11.5 7.5C11.5 8.16304 11.7634 8.79892 12.2322 9.26776C12.7011 9.73661 13.337 10 14 10ZM14 6C14.2967 6 14.5867 6.08797 14.8334 6.2528C15.08 6.41762 15.2723 6.65189 15.3858 6.92597C15.4993 7.20006 15.5291 7.50166 15.4712 7.79264C15.4133 8.08361 15.2704 8.35089 15.0607 8.56066C14.8509 8.77044 14.5836 8.9133 14.2926 8.97118C14.0017 9.02906 13.7001 8.99935 13.426 8.88582C13.1519 8.77229 12.9176 8.58003 12.7528 8.33335C12.588 8.08668 12.5 7.79668 12.5 7.5C12.5 7.10218 12.658 6.72065 12.9393 6.43934C13.2206 6.15804 13.6022 6 14 6Z" fill="#D7D7D7"/>
<path d="M21.088 14.022C20.1842 14.0017 19.3011 14.2942 18.588 14.85V14.84L17.8151 15.465L14.2581 18.526C14.1859 18.5896 14.0932 18.6251 13.997 18.626C13.9011 18.6255 13.8086 18.5899 13.737 18.526L10.169 15.465L9.58305 14.989C9.54705 14.958 9.50905 14.929 9.47205 14.899L9.37205 14.817V14.823C8.65922 14.2799 7.78181 13.9976 6.88605 14.023C5.8216 14.0868 4.82294 14.5593 4.09863 15.342C3.37433 16.1246 2.98038 17.1568 2.99905 18.223V25H10.999V19.813L11.192 19.975L13.337 21.775C13.5225 21.9303 13.7566 22.0155 13.9985 22.0155C14.2404 22.0155 14.4746 21.9303 14.6601 21.775L16.7991 19.975L16.999 19.807V25H24.999V18.224C25.018 17.1535 24.6209 16.1174 23.8915 15.3337C23.1621 14.55 22.1571 14.0798 21.088 14.022Z" fill="#D7D7D7"/>
</svg>
