<svg width="19" height="15" viewBox="0 0 19 15" fill="none" xmlns="http://www.w3.org/2000/svg">
<g clip-path="url(#clip0_3_277)">
<path d="M15.675 13.125H3.325C3.06375 13.125 2.85 13.3359 2.85 13.5938V14.5312C2.85 14.7891 3.06375 15 3.325 15H15.675C15.9362 15 16.15 14.7891 16.15 14.5312V13.5938C16.15 13.3359 15.9362 13.125 15.675 13.125ZM17.575 3.75C16.7883 3.75 16.15 4.37988 16.15 5.15625C16.15 5.36426 16.1975 5.55762 16.2806 5.73633L14.1312 7.00781C13.6741 7.27734 13.0833 7.125 12.8191 6.66797L10.3995 2.49023C10.7172 2.23242 10.925 1.8457 10.925 1.40625C10.925 0.629883 10.2867 0 9.5 0C8.71328 0 8.075 0.629883 8.075 1.40625C8.075 1.8457 8.28281 2.23242 8.60047 2.49023L6.18094 6.66797C5.91672 7.125 5.32297 7.27734 4.86875 7.00781L2.72234 5.73633C2.8025 5.56055 2.85297 5.36426 2.85297 5.15625C2.85297 4.37988 2.21469 3.75 1.42797 3.75C0.64125 3.75 0 4.37988 0 5.15625C0 5.93262 0.638281 6.5625 1.425 6.5625C1.50219 6.5625 1.57938 6.55078 1.65359 6.53906L3.8 12.1875H15.2L17.3464 6.53906C17.4206 6.55078 17.4978 6.5625 17.575 6.5625C18.3617 6.5625 19 5.93262 19 5.15625C19 4.37988 18.3617 3.75 17.575 3.75Z" fill="#C8903D"/>
<path d="M8.84033 8.08447H9.3667C9.53532 8.08447 9.67432 8.05599 9.78369 7.99902C9.89307 7.93978 9.97396 7.85775 10.0264 7.75293C10.0811 7.64583 10.1084 7.52165 10.1084 7.38037C10.1084 7.25277 10.0833 7.13997 10.0332 7.04199C9.98535 6.94173 9.9113 6.86426 9.81104 6.80957C9.71077 6.7526 9.58431 6.72412 9.43164 6.72412C9.31087 6.72412 9.19922 6.74805 9.09668 6.7959C8.99414 6.84375 8.91211 6.91097 8.85059 6.99756C8.78906 7.08415 8.7583 7.18896 8.7583 7.31201H7.77051C7.77051 7.03857 7.84342 6.80046 7.98926 6.59766C8.13737 6.39486 8.33561 6.23649 8.58398 6.12256C8.83236 6.00863 9.10579 5.95166 9.4043 5.95166C9.74154 5.95166 10.0366 6.00635 10.2896 6.11572C10.5425 6.22282 10.7396 6.38118 10.8809 6.59082C11.0221 6.80046 11.0928 7.06022 11.0928 7.37012C11.0928 7.52734 11.0563 7.68001 10.9834 7.82812C10.9105 7.97396 10.8057 8.10612 10.6689 8.22461C10.5345 8.34082 10.3704 8.43424 10.1768 8.50488C9.98307 8.57324 9.76546 8.60742 9.52393 8.60742H8.84033V8.08447ZM8.84033 8.83301V8.32373H9.52393C9.79508 8.32373 10.0332 8.35449 10.2383 8.41602C10.4434 8.47754 10.6154 8.56641 10.7544 8.68262C10.8934 8.79655 10.9982 8.93213 11.0688 9.08936C11.1395 9.2443 11.1748 9.41634 11.1748 9.60547C11.1748 9.83789 11.1304 10.0452 11.0415 10.2275C10.9526 10.4076 10.8273 10.5602 10.6655 10.6855C10.506 10.8109 10.3192 10.9066 10.105 10.9727C9.89079 11.0365 9.65723 11.0684 9.4043 11.0684C9.19466 11.0684 8.98844 11.0399 8.78564 10.9829C8.58512 10.9237 8.40283 10.8359 8.23877 10.7197C8.07699 10.6012 7.9471 10.4531 7.84912 10.2754C7.75342 10.0954 7.70557 9.88232 7.70557 9.63623H8.69336C8.69336 9.76383 8.72526 9.87777 8.78906 9.97803C8.85286 10.0783 8.94059 10.1569 9.05225 10.2139C9.16618 10.2708 9.29264 10.2993 9.43164 10.2993C9.58887 10.2993 9.72331 10.2708 9.83496 10.2139C9.94889 10.1546 10.0355 10.0726 10.0947 9.96777C10.1562 9.86068 10.187 9.73649 10.187 9.59521C10.187 9.41292 10.154 9.26709 10.0879 9.15771C10.0218 9.04606 9.92725 8.96403 9.8042 8.91162C9.68115 8.85921 9.53532 8.83301 9.3667 8.83301H8.84033Z" fill="white"/>
</g>
<defs>
<clipPath id="clip0_3_277">
<rect width="19" height="15" fill="white"/>
</clipPath>
</defs>
</svg>
