<svg width="28" height="28" viewBox="0 0 28 28" fill="none" xmlns="http://www.w3.org/2000/svg">
<rect width="28" height="28" fill="white"/>
<path d="M12 3.00101H4C3.73478 3.00101 3.48043 3.10636 3.29289 3.2939C3.10536 3.48144 3 3.73579 3 4.00101V12.001C3 12.2662 3.10536 12.5206 3.29289 12.7081C3.48043 12.8957 3.73478 13.001 4 13.001H12C12.2652 13.001 12.5196 12.8957 12.7071 12.7081C12.8946 12.5206 13 12.2662 13 12.001V4.00101C13 3.73579 12.8946 3.48144 12.7071 3.2939C12.5196 3.10636 12.2652 3.00101 12 3.00101ZM12 12.001H4V4.00101H12V12.001Z" fill="#D7D7D7"/>
<path d="M12.0031 15H4.00305C3.45077 15 3.00305 15.4477 3.00305 16V24C3.00305 24.5523 3.45077 25 4.00305 25H12.0031C12.5553 25 13.0031 24.5523 13.0031 24V16C13.0031 15.4477 12.5553 15 12.0031 15Z" fill="#D7D7D7"/>
<path d="M24 3H16C15.4477 3 15 3.44772 15 4V12C15 12.5523 15.4477 13 16 13H24C24.5523 13 25 12.5523 25 12V4C25 3.44772 24.5523 3 24 3Z" fill="#D7D7D7"/>
<path d="M22.9999 22.294C23.6428 21.5043 23.9957 20.5183 23.9999 19.5C24.0114 18.467 23.6709 17.4608 23.0345 16.647C22.398 15.8332 21.5035 15.2603 20.4981 15.0225C19.4927 14.7848 18.4363 14.8963 17.5028 15.3388C16.5692 15.7813 15.8141 16.5284 15.3617 17.4572C14.9092 18.386 14.7864 19.4411 15.0134 20.449C15.2404 21.4569 15.8037 22.3574 16.6107 23.0026C17.4176 23.6477 18.4201 23.9989 19.4533 23.9984C20.4864 23.998 21.4886 23.6458 22.2949 23L24.1689 24.874C24.2632 24.9651 24.3895 25.0155 24.5206 25.0143C24.6517 25.0132 24.7772 24.9606 24.8699 24.8679C24.9626 24.7752 25.0151 24.6498 25.0163 24.5187C25.0174 24.3876 24.967 24.2613 24.8759 24.167L22.9999 22.294ZM15.9999 19.5C15.9999 18.8078 16.2052 18.1311 16.5898 17.5555C16.9744 16.9799 17.521 16.5313 18.1606 16.2664C18.8001 16.0015 19.5038 15.9322 20.1828 16.0673C20.8617 16.2023 21.4853 16.5357 21.9748 17.0251C22.4643 17.5146 22.7976 18.1383 22.9327 18.8172C23.0677 19.4961 22.9984 20.1999 22.7335 20.8394C22.4686 21.4789 22.02 22.0256 21.4444 22.4102C20.8689 22.7947 20.1922 23 19.4999 23C18.5717 23 17.6814 22.6313 17.0251 21.9749C16.3687 21.3185 15.9999 20.4283 15.9999 19.5Z" fill="#D7D7D7"/>
</svg>
