<svg width="12" height="12" viewBox="0 0 12 12" fill="none" xmlns="http://www.w3.org/2000/svg">
<path d="M6 1.52588e-05C9.2052 1.52588e-05 12 2.64602 12 5.70002C12 8.70242 9.2682 11.0652 6 11.0652C5.30099 11.0656 4.60635 10.955 3.942 10.7376C3.6636 11.0076 3.5682 11.0994 2.9772 11.6694C2.5512 11.991 2.1504 12.1002 1.7922 11.8974C1.431 11.6934 1.3224 11.2962 1.3962 10.773L1.6362 9.38162C0.594 8.40122 0 7.10522 0 5.70002C0 2.64602 2.7942 1.52588e-05 6 1.52588e-05ZM6 0.840015C3.2484 0.840015 0.84 3.12002 0.84 5.70002C0.84 6.92702 1.3872 8.05682 2.352 8.89802L2.364 8.90822L2.5422 9.06301L2.502 9.29702L2.4192 9.77942L2.397 9.90782L2.226 10.9026C2.21592 10.9696 2.2099 11.0371 2.208 11.1048V11.1618C2.208 11.1648 2.2074 11.166 2.2068 11.1666C2.211 11.1606 2.2926 11.1348 2.4324 11.0328L3.7344 9.76922L3.9828 9.86282C4.62805 10.1036 5.31129 10.2265 6 10.2258C8.8296 10.2258 11.16 8.20982 11.16 5.70002C11.16 3.12062 8.7516 0.840015 6 0.840015ZM3.1362 4.68782C3.25708 4.6834 3.3776 4.70339 3.49057 4.7466C3.60355 4.78981 3.70665 4.85535 3.79373 4.93931C3.88081 5.02326 3.95006 5.1239 3.99737 5.23522C4.04468 5.34655 4.06906 5.46626 4.06906 5.58722C4.06906 5.70817 4.04468 5.82789 3.99737 5.93921C3.95006 6.05053 3.88081 6.15117 3.79373 6.23512C3.70665 6.31908 3.60355 6.38462 3.49057 6.42783C3.3776 6.47104 3.25708 6.49103 3.1362 6.48662C2.90335 6.47811 2.68287 6.37963 2.52115 6.21189C2.35942 6.04415 2.26906 5.82022 2.26906 5.58722C2.26906 5.35421 2.35942 5.13028 2.52115 4.96254C2.68287 4.7948 2.90335 4.69632 3.1362 4.68782ZM6.135 4.68782C6.25588 4.6834 6.3764 4.70339 6.48937 4.7466C6.60235 4.78981 6.70545 4.85535 6.79253 4.93931C6.87961 5.02326 6.94886 5.1239 6.99617 5.23522C7.04348 5.34655 7.06786 5.46626 7.06786 5.58722C7.06786 5.70817 7.04348 5.82789 6.99617 5.93921C6.94886 6.05053 6.87961 6.15117 6.79253 6.23512C6.70545 6.31908 6.60235 6.38462 6.48937 6.42783C6.3764 6.47104 6.25588 6.49103 6.135 6.48662C5.90215 6.47811 5.68167 6.37963 5.51995 6.21189C5.35822 6.04415 5.26786 5.82022 5.26786 5.58722C5.26786 5.35421 5.35822 5.13028 5.51995 4.96254C5.68167 4.7948 5.90215 4.69632 6.135 4.68782ZM9.1332 4.68782C9.25408 4.6834 9.3746 4.70339 9.48757 4.7466C9.60055 4.78981 9.70365 4.85535 9.79073 4.93931C9.87781 5.02326 9.94706 5.1239 9.99437 5.23522C10.0417 5.34655 10.0661 5.46626 10.0661 5.58722C10.0661 5.70817 10.0417 5.82789 9.99437 5.93921C9.94706 6.05053 9.87781 6.15117 9.79073 6.23512C9.70365 6.31908 9.60055 6.38462 9.48757 6.42783C9.3746 6.47104 9.25408 6.49103 9.1332 6.48662C8.90035 6.47811 8.67987 6.37963 8.51815 6.21189C8.35642 6.04415 8.26606 5.82022 8.26606 5.58722C8.26606 5.35421 8.35642 5.13028 8.51815 4.96254C8.67987 4.7948 8.90035 4.69632 9.1332 4.68782Z" fill="#C4C4C4"/>
</svg>
