<svg width="20" height="15" viewBox="0 0 20 15" fill="none" xmlns="http://www.w3.org/2000/svg">
<path d="M16.175 13.125H3.825C3.56375 13.125 3.35 13.3359 3.35 13.5938V14.5312C3.35 14.7891 3.56375 15 3.825 15H16.175C16.4362 15 16.65 14.7891 16.65 14.5312V13.5938C16.65 13.3359 16.4362 13.125 16.175 13.125ZM18.075 3.75C17.2883 3.75 16.65 4.37988 16.65 5.15625C16.65 5.36426 16.6975 5.55762 16.7806 5.73633L14.6312 7.00781C14.1741 7.27734 13.5833 7.125 13.3191 6.66797L10.8995 2.49023C11.2172 2.23242 11.425 1.8457 11.425 1.40625C11.425 0.629883 10.7867 0 10 0C9.21328 0 8.575 0.629883 8.575 1.40625C8.575 1.8457 8.78281 2.23242 9.10047 2.49023L6.68094 6.66797C6.41672 7.125 5.82297 7.27734 5.36875 7.00781L3.22234 5.73633C3.3025 5.56055 3.35297 5.36426 3.35297 5.15625C3.35297 4.37988 2.71469 3.75 1.92797 3.75C1.14125 3.75 0.5 4.37988 0.5 5.15625C0.5 5.93262 1.13828 6.5625 1.925 6.5625C2.00219 6.5625 2.07938 6.55078 2.15359 6.53906L4.3 12.1875H15.7L17.8464 6.53906C17.9206 6.55078 17.9978 6.5625 18.075 6.5625C18.8617 6.5625 19.5 5.93262 19.5 5.15625C19.5 4.37988 18.8617 3.75 18.075 3.75Z" fill="#FFD233"/>
</svg>
