<svg width="28" height="28" viewBox="0 0 28 28" fill="none" xmlns="http://www.w3.org/2000/svg">
<rect width="28" height="28" fill="white"/>
<path d="M14 16C16.2091 16 18 14.2091 18 12C18 9.79086 16.2091 8 14 8C11.7909 8 10 9.79086 10 12C10 14.2091 11.7909 16 14 16Z" fill="#D7D7D7"/>
<path d="M25 14C25.0011 12.0937 24.5068 10.2198 23.5656 8.56208C22.6243 6.90435 21.2684 5.51969 19.6307 4.54388C17.9931 3.56806 16.13 3.03458 14.2241 2.99575C12.3182 2.95692 10.4349 3.41407 8.75884 4.32237C7.08282 5.23068 5.67162 6.55895 4.66361 8.17697C3.65559 9.79498 3.08538 11.6472 3.00887 13.552C2.93235 15.4567 3.35216 17.3487 4.22714 19.0424C5.10212 20.736 6.40224 22.1732 8 23.213C8.45895 23.5104 8.93925 23.7735 9.437 24C9.78437 24.1592 10.1399 24.3001 10.502 24.422H10.51C10.8535 24.5373 11.2026 24.6351 11.556 24.715C11.587 24.722 11.617 24.732 11.647 24.739C11.973 24.809 12.304 24.863 12.639 24.904C12.699 24.912 12.757 24.925 12.818 24.931C13.6035 25.019 14.3965 25.019 15.182 24.931C15.243 24.925 15.301 24.912 15.361 24.904C15.696 24.863 16.027 24.804 16.353 24.739C16.383 24.732 16.413 24.722 16.444 24.715C16.7974 24.6351 17.1465 24.5373 17.49 24.422H17.498C17.8601 24.3001 18.2156 24.1592 18.563 24C19.0607 23.7735 19.5411 23.5104 20 23.213C21.535 22.2155 22.7965 20.8503 23.6697 19.2413C24.5429 17.6323 25.0002 15.8307 25 14ZM19.917 22.043C19.6909 20.6365 18.9711 19.3566 17.8868 18.4327C16.8025 17.5089 15.4245 17.0014 14 17.0014C12.5755 17.0014 11.1975 17.5089 10.1132 18.4327C9.0289 19.3566 8.30914 20.6365 8.08299 22.043C6.38389 20.7959 5.12227 19.0439 4.47826 17.037C3.83425 15.0302 3.84079 12.8711 4.49695 10.8682C5.15311 8.86531 6.42533 7.12092 8.13196 5.88414C9.83858 4.64736 11.8923 3.98143 14 3.98143C16.1077 3.98143 18.1614 4.64736 19.868 5.88414C21.5747 7.12092 22.8469 8.86531 23.5031 10.8682C24.1592 12.8711 24.1658 15.0302 23.5217 17.037C22.8777 19.0439 21.6161 20.7959 19.917 22.043Z" fill="#D7D7D7"/>
</svg>
