<svg width="21" height="21" viewBox="0 0 21 21" fill="none" xmlns="http://www.w3.org/2000/svg">
<g clip-path="url(#clip0_3_183)">
<path d="M19.8334 9.78835C20.0502 9.62684 20.211 9.40153 20.2933 9.144C20.3756 8.88648 20.3752 8.60966 20.2922 8.35236C20.2092 8.09506 20.0478 7.87018 19.8306 7.70926C19.6133 7.54833 19.3512 7.45943 19.0809 7.45501L13.8309 7.25668C13.805 7.2549 13.7803 7.24569 13.7596 7.23017C13.7389 7.21464 13.7231 7.19346 13.7142 7.16918L11.9 2.26918C11.8089 2.01989 11.6433 1.80462 11.4258 1.65254C11.2082 1.50045 10.9492 1.41888 10.6838 1.41888C10.4183 1.41888 10.1593 1.50045 9.94178 1.65254C9.72423 1.80462 9.55868 2.01989 9.46753 2.26918L7.6592 7.18668C7.65026 7.21096 7.63449 7.23214 7.61379 7.24767C7.59309 7.26319 7.56834 7.2724 7.54253 7.27418L2.29253 7.47251C2.02222 7.47693 1.76006 7.56583 1.54283 7.72676C1.32559 7.88768 1.16416 8.11256 1.08119 8.36986C0.998206 8.62716 0.997834 8.90398 1.08012 9.1615C1.16241 9.41903 1.32323 9.64434 1.54003 9.80585L5.65836 13.0433C5.67897 13.0596 5.69438 13.0815 5.70267 13.1064C5.71097 13.1312 5.71179 13.158 5.70503 13.1833L4.28753 18.2058C4.21408 18.4616 4.22119 18.7338 4.30791 18.9854C4.39463 19.2369 4.55674 19.4557 4.77219 19.6118C4.98764 19.768 5.24597 19.854 5.51204 19.8582C5.7781 19.8623 6.03898 19.7844 6.2592 19.635L10.6109 16.7183C10.6323 16.7035 10.6577 16.6956 10.6838 16.6956C10.7098 16.6956 10.7353 16.7035 10.7567 16.7183L15.1084 19.635C15.3256 19.7895 15.5855 19.8725 15.8521 19.8725C16.1187 19.8725 16.3786 19.7895 16.5959 19.635C16.8114 19.4803 16.9736 19.2626 17.0603 19.0119C17.147 18.7612 17.1539 18.4898 17.08 18.235L15.6509 13.195C15.6433 13.1697 15.6437 13.1427 15.6521 13.1176C15.6604 13.0926 15.6763 13.0707 15.6975 13.055L19.8334 9.78835Z" fill="#F0F0F0"/>
</g>
<defs>
<clipPath id="clip0_3_183">
<rect width="21" height="21" fill="white"/>
</clipPath>
</defs>
</svg>
